<?xml version="1.0" encoding="UTF-8" standalone="no"?>
<!DOCTYPE svg PUBLIC "-//W3C//DTD SVG 1.1//EN" "http://www.w3.org/Graphics/SVG/1.1/DTD/svg11.dtd">
<svg version="1.1" xmlns:dc="http://purl.org/dc/elements/1.1/" xmlns="http://www.w3.org/2000/svg" xmlns:xl="http://www.w3.org/1999/xlink" viewBox="-328 28 567 489" width="567" height="489">
  <defs/>
  <g id="Canvas_2" stroke-opacity="1" stroke="none" stroke-dasharray="none" fill-opacity="1" fill="none">
    <title>Canvas 2</title>
    <rect fill="white" x="-328" y="28" width="567" height="489"/>
    <g id="Canvas_2_Layer_1">
      <title>Layer 1</title>
      <g id="Group_140">
        <g id="Graphic_141">
          <path d="M 152.44268 28 C 199.81416 28 238.2459 66.38565 238.2459 113.80321 C 238.2459 155.09197 209.07649 189.56072 170.23003 197.7171 C 170.3222 198.36223 170.3222 199.00737 170.3222 199.6525 L 170.3222 224.07554 L 203.8693 219.65175 C 215.1592 218.17715 225.52748 226.1492 227.00208 237.4391 C 228.47668 248.729 220.50463 259.09726 209.21473 260.57186 L -26.122002 291.49235 L 25.995845 478.39773 L 54.7966 478.39773 C 65.16487 478.39773 73.59773 486.8767 73.59773 497.19887 C 73.59773 507.56714 65.11879 516 54.7966 516 L -141.78584 516 C -152.1541 516 -160.58697 507.52106 -160.58697 497.19887 C -160.58697 486.8306 -152.10803 478.39773 -141.78584 478.39773 L -113.12332 478.39773 L -69.80699 297.2525 L -288.09367 325.9611 C -299.38357 327.4357 -309.75184 319.46364 -311.22644 308.17375 C -312.70104 296.88385 -304.729 286.51558 -293.4391 285.04098 L -259.43116 280.5711 L -259.43116 253.93617 C -259.43116 253.3832 -259.38508 252.83022 -259.339 252.27724 C -298.50803 244.3052 -328 209.65212 -328 168.13296 C -328 120.76147 -289.61435 82.37583 -242.1968 82.37583 C -194.8253 82.37583 -156.39358 120.76147 -156.39358 168.17904 C -156.39358 209.9286 -186.2542 244.71992 -225.7458 252.3694 C -225.69972 252.8763 -225.65364 253.3832 -225.65364 253.8901 L -225.65364 276.10123 L 136.77507 228.49934 L 136.77507 199.6525 C 136.77507 199.1456 136.82115 198.63872 136.86723 198.13182 C 97.00699 190.75883 66.777715 155.7832 66.777715 113.80321 C 66.68555 66.38565 105.0712 28 152.44268 28 Z M 152.44268 81.4542 C 170.09178 81.4542 184.42304 95.73938 184.42304 113.43456 C 184.42304 131.12975 170.09178 145.41492 152.44268 145.41492 C 134.79358 145.41492 120.5084 131.12975 120.5084 113.43456 C 120.5084 95.73938 134.79358 81.4542 152.44268 81.4542 Z M -241.78206 136.33692 C -224.13296 136.33692 -209.84778 150.6221 -209.84778 168.31728 C -209.84778 185.96638 -224.13296 200.25156 -241.78206 200.25156 C -259.43116 200.25156 -273.76242 185.96638 -273.76242 168.31728 C -273.71634 150.6221 -259.43116 136.33692 -241.78206 136.33692 Z" fill="#ccc"/>
        </g>
      </g>
      <g id="Graphic_139">
        <path d="M -220.75 170.4029 C -219.25332 168.3799 -217.428 166.6222 -215.35 165.2029 C -211.65 162.6629 -207.21 161.2029 -201.95 160.2729 C -201.10254 160.12787 -200.2975 160.69587 -200.15 161.5429 C -200.07754 161.94762 -200.16993 162.36452 -200.4066 162.70074 C -200.64326 163.03696 -201.00455 163.26457 -201.41 163.3329 C -206.26 164.1929 -210.31 165.5029 -213.61 167.7629 C -216.42095 169.72424 -218.705 172.34834 -220.26 175.4029 C -207.64 176.6629 -200.17 175.4029 -194.74 171.4829 C -189.31 167.5629 -185.74 160.7929 -180.98 151.0529 C -182.37 151.1429 -183.82 151.2129 -185.3 151.2729 C -194.87 151.7229 -205.3 152.2029 -211.89 157.9629 C -213.69347 159.56797 -215.3347 161.34653 -216.79 163.2729 C -218.24287 165.1593 -219.5787 167.133 -220.79 169.1829 L -220.79 170.4029 Z M -225.22 138.4029 C -225.78 138.4029 -226.34 138.3029 -226.89 138.2329 C -227.44 138.1629 -228.12 138.0529 -228.69 137.9529 C -229.24924 137.85772 -229.80328 137.73422 -230.35 137.5829 L -230.35 132.7829 C -229.65 132.8429 -228.9 132.8929 -228.09 132.9329 C -227.28 132.9729 -226.46 133.0029 -225.63 133.0229 L -223.31 133.0229 C -222.74294 133.03294 -222.17642 132.98266 -221.62 132.8729 C -221.247 132.80753 -220.90022 132.6376 -220.62 132.3829 C -220.3676 132.10246 -220.23905 131.732 -220.26353 131.3555 C -220.288 130.97899 -220.4634 130.6283 -220.75 130.3829 C -221.08073 130.15186 -221.4767 130.03272 -221.88 130.0429 L -223.5 130.0429 C -225.43271 130.18012 -227.351 129.62343 -228.91 128.4729 C -231.57 126.2129 -231.38 119.6429 -228.72 117.4729 C -227.70478 116.67688 -226.49746 116.16291 -225.22 115.9829 L -225.22 113.5029 L -220.85 113.5029 L -220.85 115.8829 L -220.16 115.9429 C -219.31 116.0329 -218.51 116.1529 -217.76 116.2829 C -217.01 116.4129 -216.34 116.5529 -215.76 116.6929 L -215.76 121.4029 C -216.7 121.3229 -217.76 121.2529 -218.94 121.2029 C -220.12 121.1529 -221.19 121.1229 -222.15 121.1229 C -222.66585 121.11788 -223.18115 121.15804 -223.69 121.2429 C -224.06555 121.30667 -224.41365 121.48072 -224.69 121.7429 C -225.24675 122.40445 -225.19424 123.38461 -224.57 123.9829 C -224.13008 124.28303 -223.60095 124.42413 -223.07 124.3829 L -221.07 124.3829 C -219.82567 124.34031 -218.59174 124.62295 -217.49 125.2029 C -216.56716 125.705 -215.8151 126.471 -215.33 127.4029 C -214.22 129.5529 -214.33 133.8029 -215.63 135.7529 C -216.30546 136.77737 -217.33407 137.51769 -218.52 137.8329 C -219.28293 138.04266 -220.06246 138.18653 -220.85 138.2629 L -220.85 140.9529 L -225.22 140.9529 L -225.22 138.3329 Z M -290.23 182.2029 L -274.76 182.2029 C -273.23246 182.21388 -271.99996 183.45532 -272 184.9829 L -272 216.8129 C -272.0055 218.34045 -273.24245 219.5774 -274.77 219.5829 L -290.23 219.5829 C -291.75755 219.5774 -292.9945 218.34045 -293 216.8129 L -293 184.9829 C -293 183.45144 -291.76144 182.2084 -290.23 182.2029 Z M -267.76 216.4029 L -267.76 185.2029 L -253.71 185.2029 C -247.71 186.2729 -241.8 189.5029 -235.84 193.2029 L -224.93 193.2029 C -219.99 193.5029 -217.41 198.5129 -222.2 201.8029 C -226.03 204.6029 -231.08 204.4429 -236.2 203.9829 C -239.77 203.8029 -239.93 208.6029 -236.2 208.6229 C -234.91 208.7229 -233.51 208.4129 -232.28 208.4129 C -225.82 208.4129 -220.5 207.1729 -217.28 202.0729 L -215.65 198.2529 L -199.41 190.2029 C -191.29 187.5329 -185.52 196.0229 -191.5 201.9329 C -202.81734 210.20317 -214.92653 217.33134 -227.65 223.2129 C -236.65 228.6629 -245.56 228.4829 -254.52 223.2129 Z M -222.68 104.4029 C -210.04608 104.33677 -199.62684 114.28355 -199.10704 126.90695 C -198.58724 139.53035 -208.1534 150.30008 -220.75 151.2729 L -220.75 163.4029 C -220.25 162.6929 -219.75 162.0129 -219.25 161.4029 C -217.67027 159.31893 -215.8956 157.39021 -213.95 155.6429 C -206.59 149.1729 -195.53 148.6429 -185.44 148.1929 C -183.11 148.0829 -180.83 147.9729 -178.54 147.7829 C -178.26494 147.76444 -177.9897 147.81605 -177.74 147.9329 C -176.96969 148.3058 -176.64737 149.23245 -177.02 150.0029 C -182.57 161.4629 -186.49 169.3129 -192.92 174.0029 C -199 178.4029 -207.18 179.8429 -220.75 178.4729 L -220.75 180.8329 C -212.9 181.6029 -205.63 182.5829 -201.58 185.8329 L -216.16 193.1029 C -216.7032 192.24873 -217.37824 191.48595 -218.16 190.8429 C -219.8763 189.45841 -221.96399 188.6129 -224.16 188.4129 C -224.40205 188.38099 -224.64586 188.36429 -224.89 188.3629 L -234.47 188.3629 C -237.79024 186.25338 -241.27093 184.40772 -244.88 182.8429 C -239.8 181.0929 -233.06 180.6429 -226.28 180.5829 L -226.28 174.2029 C -230.11723 174.61691 -233.9975 174.34604 -237.74 173.4029 C -242.3161 172.12917 -246.15398 169.00523 -248.33 164.7829 C -248.34282 164.75091 -248.35962 164.72067 -248.38 164.6929 L -252.75 155.6929 C -252.96993 155.24088 -253.00074 154.71986 -252.8356 154.24508 C -252.67045 153.7703 -252.32297 153.38086 -251.87 153.1629 C -251.57913 153.01713 -251.25465 152.95154 -250.93 152.9729 L -236.29 153.8729 L -236.05 153.8729 C -233.32 154.2129 -230.32 154.5929 -227.61 156.9829 C -227.16133 157.37994 -226.73406 157.80053 -226.33 158.2429 C -226.33 155.4229 -226.15 153.5329 -226.12 151.1329 C -238.3619 149.40894 -247.17 138.48784 -246.2624 126.15851 C -245.35477 113.82918 -235.04238 104.31562 -222.68 104.4029 Z M -222.68 108.1829 C -213.2807 108.17812 -205.18721 114.81425 -203.34999 124.03225 C -201.51276 133.25025 -206.4436 142.48224 -215.1265 146.0814 C -223.8094 149.68057 -233.82558 146.64428 -239.04855 138.82971 C -244.27152 131.01514 -243.2463 120.59921 -236.6 113.9529 C -232.91173 110.25528 -227.9026 108.17894 -222.68 108.1829 Z M -226.28 170.4029 L -226.28 170.1029 C -226.7298 169.5427 -227.25866 169.05088 -227.85 168.6429 C -229.3014 167.72485 -230.91847 167.09976 -232.61 166.8029 C -233.21196 166.75377 -233.73056 166.35947 -233.93884 165.79256 C -234.14712 165.22566 -234.00715 164.5894 -233.58017 164.16224 C -233.1532 163.7351 -232.517 163.59485 -231.95 163.8029 C -229.94022 164.1683 -228.0169 164.90778 -226.28 165.9829 L -226.28 165.5829 C -226.35 165.3829 -226.43 165.1729 -226.51 164.9829 C -227.2804 163.01581 -228.49942 161.25576 -230.07 159.8429 C -231.92 158.2129 -234.3 157.9129 -236.48 157.6429 L -236.53 157.6429 L -247.93 156.9429 L -244.93 163.0329 C -243.2227 166.33549 -240.22007 168.78034 -236.64 169.7829 C -233.25082 170.6027 -229.74276 170.81265 -226.28 170.4029 Z" fill="black"/>
      </g>
      <g id="Graphic_147">
        <title>Attach Money</title>
        <path d="M 158.39518 106.90911 C 142.90484 102.88298 137.92337 98.72038 137.92337 92.23764 C 137.92337 84.79955 144.81554 79.61336 156.348 79.61336 C 168.4946 79.61336 172.9984 85.4137 173.40784 93.94363 L 188.48874 93.94363 C 188.01107 82.20645 180.84593 71.42463 166.5839 67.94442 L 166.5839 53 L 146.11209 53 L 146.11209 67.739705 C 132.87365 70.60576 122.22831 79.20392 122.22831 92.37412 C 122.22831 108.13742 135.26203 115.98495 154.30082 120.55698 C 171.36066 124.65135 174.77263 130.65641 174.77263 137.00267 C 174.77263 141.71119 171.4289 149.21752 156.348 149.21752 C 142.29069 149.21752 136.7633 142.9395 136.01266 134.88725 L 121 134.88725 C 121.81887 149.83168 133.01013 158.22512 146.11209 161.02293 L 146.11209 175.83088 L 166.5839 175.83088 L 166.5839 161.15941 C 179.89058 158.63456 190.46769 150.9235 190.46769 136.93443 C 190.46769 117.55445 173.88552 110.93523 158.39518 106.90911 Z" fill="black"/>
      </g>
      <g id="Group_144">
        <title>Access Time</title>
        <g id="Graphic_146">
          <path d="M -300.60577 330 C -308.55934 330 -315 336.45507 -315 344.40864 C -315 352.3622 -308.55934 358.81728 -300.60577 358.81728 C -292.6378 358.81728 -286.18272 352.3622 -286.18272 344.40864 C -286.18272 336.45507 -292.6378 330 -300.60577 330 Z M -300.59136 355.93555 C -306.95998 355.93555 -312.11827 350.77726 -312.11827 344.40864 C -312.11827 338.04002 -306.95998 332.88173 -300.59136 332.88173 C -294.22274 332.88173 -289.06445 338.04002 -289.06445 344.40864 C -289.06445 350.77726 -294.22274 355.93555 -300.59136 355.93555 Z" fill="black"/>
        </g>
        <g id="Graphic_145">
          <path d="M -299.87093 337.2043 L -302.03223 337.2043 L -302.03223 345.8495 L -294.4677 350.38822 L -293.38704 348.61596 L -299.87093 344.76885 Z" fill="black"/>
        </g>
      </g>
      <g id="Graphic_143">
        <title>Format Indent Increase</title>
        <path d="M -268.13732 358.81728 L -242.20177 358.81728 L -242.20177 355.93555 L -268.13732 355.93555 L -268.13732 358.81728 Z M -268.13732 340.08605 L -268.13732 351.61296 L -262.37386 345.8495 L -268.13732 340.08605 Z M -256.6104 353.05382 L -242.20177 353.05382 L -242.20177 350.1721 L -256.6104 350.1721 L -256.6104 353.05382 Z M -268.13732 332.88173 L -268.13732 335.76346 L -242.20177 335.76346 L -242.20177 332.88173 L -268.13732 332.88173 Z M -256.6104 341.5269 L -242.20177 341.5269 L -242.20177 338.6452 L -256.6104 338.6452 L -256.6104 341.5269 Z M -256.6104 347.29037 L -242.20177 347.29037 L -242.20177 344.40864 L -256.6104 344.40864 L -256.6104 347.29037 Z" fill="black"/>
      </g>
      <g id="Graphic_142">
        <title>Verified User</title>
        <path d="M -211.1886 330 L -224.15636 335.76346 L -224.15636 344.40864 C -224.15636 352.40543 -218.62345 359.8835 -211.1886 361.699 C -203.75373 359.8835 -198.22081 352.40543 -198.22081 344.40864 L -198.22081 335.76346 L -211.1886 330 Z M -214.07032 353.05382 L -219.83377 347.29037 L -217.80215 345.25875 L -214.07032 348.97618 L -204.57502 339.4809 L -202.5434 341.5269 L -214.07032 353.05382 Z" fill="black"/>
      </g>
    </g>
  </g>
</svg>
