<?xml version="1.0" encoding="UTF-8" standalone="no"?>
<!DOCTYPE svg PUBLIC "-//W3C//DTD SVG 1.1//EN" "http://www.w3.org/Graphics/SVG/1.1/DTD/svg11.dtd">
<svg version="1.1" xmlns:dc="http://purl.org/dc/elements/1.1/" xmlns="http://www.w3.org/2000/svg" xmlns:xl="http://www.w3.org/1999/xlink" viewBox="1 1 355 296" width="355" height="296">
  <defs/>
  <g id="Canvas_2" stroke-opacity="1" stroke="none" stroke-dasharray="none" fill-opacity="1" fill="none">
    <title>Canvas 2</title>
    <rect fill="white" x="1" y="1" width="355" height="296"/>
    <g id="Canvas_2_Layer_1">
      <title>Layer 1</title>
      <g id="Group_137">
        <g id="Graphic_138">
          <path d="M 190.04468 61.24881 L 190.04468 270.83744 L 292.7068 270.83744 C 293.8017 270.83744 294.6661 271.73065 294.6661 272.82556 L 294.6661 295.01188 C 294.6661 296.1068 293.7729 297 292.7068 297 L 66.80979 297 C 65.71488 297 64.82167 296.1068 64.82167 295.01188 L 64.82167 272.82556 C 64.82167 271.73065 65.71488 270.83744 66.80979 270.83744 L 169.47192 270.83744 L 169.47192 61.33525 C 160.53976 58.2234 153.45167 51.16412 150.33982 42.231967 L 85.42325 42.231967 L 85.42325 52.11496 C 85.42325 53.20987 84.53003 54.07427 83.46393 54.07427 L 66.80979 54.07427 C 65.71488 54.07427 64.82167 53.18106 64.82167 52.11496 L 64.82167 42.231967 L 48.311593 42.231967 C 47.043804 42.231967 46.00652 41.33875 46.00652 40.272656 L 46.00652 23.5897 C 46.00652 22.494792 47.043804 21.601577 48.311593 21.601577 L 150.39745 21.601577 C 154.66183 9.615205 166.12956 1 179.61423 1 C 193.0989 1 204.56663 9.615205 208.83101 21.63039 L 311.205 21.63039 C 312.4728 21.63039 313.51007 22.523606 313.51007 23.618515 L 313.51007 40.272656 C 313.51007 41.367565 312.4728 42.231967 311.205 42.231967 L 292.59155 42.231967 L 292.59155 52.11496 C 292.59155 53.20987 291.69834 54.07427 290.63224 54.07427 L 273.9781 54.07427 C 272.8832 54.07427 271.98997 53.18106 271.98997 52.11496 L 271.98997 42.231967 L 208.91745 42.231967 C 205.83442 51.07768 198.86158 58.079334 190.04468 61.24881 Z M 288.1543 65.25387 L 354.16577 181.8905 C 354.74204 182.89896 355.00136 183.99387 354.97255 185.05996 L 355.03018 185.05996 C 355.03018 185.20403 355.03018 185.3481 355.03018 185.49216 C 355.03018 213.26828 322.32697 235.80035 281.98822 235.80035 C 242.08167 235.80035 209.6666 213.7581 208.97508 186.38538 C 208.85983 185.92436 208.8022 185.40572 208.8022 184.9159 C 208.8022 183.6481 209.20559 182.43794 209.8683 181.45829 L 277.37808 64.965735 C 279.07807 62.02677 282.8238 61.0183 285.76278 62.71829 C 286.82887 63.381 287.63565 64.2454 288.1543 65.25387 Z M 288.4136 90.63847 L 288.4136 178.80746 L 338.3184 178.80746 Z M 276.65774 178.77864 L 276.65774 90.78254 L 225.62922 178.77864 Z M 80.35209 65.25387 L 146.36357 181.8905 C 146.93984 182.89896 147.19916 183.99387 147.17035 185.05996 L 147.22798 185.05996 C 147.22798 185.20403 147.22798 185.3481 147.22798 185.49216 C 147.22798 213.26828 114.52477 235.80035 74.18602 235.80035 C 34.27947 235.80035 1.8644018 213.7581 1.1728804 186.38538 C 1.0576268 185.95318 1 185.46335 1 184.9447 C 1 183.67692 1.4033875 182.46676 2.0660956 181.4871 L 69.57588 64.99455 C 71.27587 62.05558 75.02161 61.047114 77.96058 62.747104 C 79.02667 63.381 79.83345 64.2454 80.35209 65.25387 Z M 80.61141 90.63847 L 80.61141 178.80746 L 130.5162 178.80746 Z M 68.82673 178.77864 L 68.82673 90.78254 L 17.827022 178.77864 Z M 179.61423 18.48973 C 187.0769 18.48973 193.12771 24.540543 193.12771 32.003212 C 193.12771 39.46588 187.0769 45.516694 179.61423 45.516694 C 172.15156 45.516694 166.10075 39.46588 166.10075 32.003212 C 166.10075 24.540543 172.15156 18.48973 179.61423 18.48973 Z" fill="#ccc"/>
        </g>
      </g>
      <g id="Graphic_134">
        <title>Attach Money</title>
        <path d="M 283.94752 203.4153 C 278.45975 201.98896 276.69496 200.51427 276.69496 198.21763 C 276.69496 195.58253 279.13666 193.74522 283.22227 193.74522 C 287.52545 193.74522 289.121 195.8001 289.26606 198.822 L 294.60878 198.822 C 294.43955 194.66388 291.90116 190.8442 286.84854 189.61126 L 286.84854 184.3169 L 279.596 184.3169 L 279.596 189.53874 C 274.906 190.5541 271.13467 193.60017 271.13467 198.26598 C 271.13467 203.85045 275.75213 206.6306 282.497 208.25034 C 288.5408 209.70085 289.74957 211.82826 289.74957 214.07656 C 289.74957 215.74465 288.565 218.40392 283.22227 218.40392 C 278.24218 218.40392 276.284 216.1798 276.01806 213.32713 L 270.6995 213.32713 C 270.98962 218.6215 274.95435 221.59504 279.596 222.58623 L 279.596 227.83224 L 286.84854 227.83224 L 286.84854 222.63458 C 291.5627 221.7401 295.30986 219.0083 295.30986 214.05238 C 295.30986 207.18663 289.4353 204.84163 283.94752 203.4153 Z" fill="black"/>
      </g>
      <g id="Group_131">
        <title>Access Time</title>
        <g id="Graphic_133">
          <path d="M 27.348996 184.3169 C 19.395427 184.3169 12.954766 190.77196 12.954766 198.72553 C 12.954766 206.6791 19.395427 213.13417 27.348996 213.13417 C 35.316973 213.13417 41.772043 206.6791 41.772043 198.72553 C 41.772043 190.77196 35.316973 184.3169 27.348996 184.3169 Z M 27.363404 210.25244 C 20.994786 210.25244 15.836493 205.09415 15.836493 198.72553 C 15.836493 192.35692 20.994786 187.19862 27.363404 187.19862 C 33.732023 187.19862 38.890315 192.35692 38.890315 198.72553 C 38.890315 205.09415 33.732023 210.25244 27.363404 210.25244 Z" fill="black"/>
        </g>
        <g id="Graphic_132">
          <path d="M 28.083836 191.52121 L 25.92254 191.52121 L 25.92254 200.1664 L 33.487076 204.70512 L 34.567724 202.93286 L 28.083836 199.08575 Z" fill="black"/>
        </g>
      </g>
      <g id="Graphic_135">
        <title>Format Indent Increase</title>
        <path d="M 59.81745 213.13417 L 85.753 213.13417 L 85.753 210.25244 L 59.81745 210.25244 L 59.81745 213.13417 Z M 59.81745 194.40294 L 59.81745 205.92985 L 65.5809 200.1664 L 59.81745 194.40294 Z M 71.34436 207.37072 L 85.753 207.37072 L 85.753 204.489 L 71.34436 204.489 L 71.34436 207.37072 Z M 59.81745 187.19862 L 59.81745 190.08035 L 85.753 190.08035 L 85.753 187.19862 L 59.81745 187.19862 Z M 71.34436 195.8438 L 85.753 195.8438 L 85.753 192.96208 L 71.34436 192.96208 L 71.34436 195.8438 Z M 71.34436 201.60726 L 85.753 201.60726 L 85.753 198.72553 L 71.34436 198.72553 L 71.34436 201.60726 Z" fill="black"/>
      </g>
      <g id="Graphic_136">
        <title>Verified User</title>
        <path d="M 116.76618 184.3169 L 103.7984 190.08035 L 103.7984 198.72553 C 103.7984 206.72233 109.33132 214.2004 116.76618 216.0159 C 124.20103 214.2004 129.73395 206.72233 129.73395 198.72553 L 129.73395 190.08035 L 116.76618 184.3169 Z M 113.88445 207.37072 L 108.12099 201.60726 L 110.15261 199.57564 L 113.88445 203.29307 L 123.37974 193.79778 L 125.41136 195.8438 L 113.88445 207.37072 Z" fill="black"/>
      </g>
    </g>
  </g>
</svg>
