<?xml version="1.0" encoding="us-ascii" standalone="no"?><svg xmlns="http://www.w3.org/2000/svg" xmlns:xlink="http://www.w3.org/1999/xlink" contentStyleType="text/css" height="950px" preserveAspectRatio="none" style="width:1031px;height:950px;background:#FFFFFF;" version="1.1" viewBox="0 0 1031 950" width="1031px" zoomAndPan="magnify"><defs/><g><rect fill="#F1F1F1" height="36.2969" rx="12.5" ry="12.5" style="stroke:#181818;stroke-width:1.5;" width="147" x="566" y="456.3008"/><text fill="#000000" font-family="sans-serif" font-size="14" lengthAdjust="spacing" textLength="127" x="576" y="479.2959">Data Management</text><rect fill="#F1F1F1" height="36.2969" rx="12.5" ry="12.5" style="stroke:#181818;stroke-width:1.5;" width="102" x="763" y="48.1484"/><text fill="#000000" font-family="sans-serif" font-size="14" lengthAdjust="spacing" textLength="82" x="773" y="71.1436">governance</text><rect fill="#F1F1F1" height="36.2969" rx="12.5" ry="12.5" style="stroke:#181818;stroke-width:1.5;" width="104" x="915" y="20"/><text fill="#000000" font-family="sans-serif" font-size="14" lengthAdjust="spacing" textLength="84" x="925" y="42.9951">stewardship</text><path d="M865,66.2969 L875,66.2969 C890,66.2969 890,38.1484 905,38.1484 L915,38.1484 " fill="none" style="stroke:#181818;stroke-width:1.0;"/><rect fill="#F1F1F1" height="36.2969" rx="12.5" ry="12.5" style="stroke:#181818;stroke-width:1.5;" width="92" x="915" y="76.2969"/><text fill="#000000" font-family="sans-serif" font-size="14" lengthAdjust="spacing" textLength="72" x="925" y="99.292">ownership</text><path d="M865,66.2969 L875,66.2969 C890,66.2969 890,94.4453 905,94.4453 L915,94.4453 " fill="none" style="stroke:#181818;stroke-width:1.0;"/><path d="M713,474.4492 L723,474.4492 C738,474.4492 738,66.2969 753,66.2969 L763,66.2969 " fill="none" style="stroke:#181818;stroke-width:1.0;"/><rect fill="#F1F1F1" height="36.2969" rx="12.5" ry="12.5" style="stroke:#181818;stroke-width:1.5;" width="74" x="763" y="104.4453"/><text fill="#000000" font-family="sans-serif" font-size="14" lengthAdjust="spacing" textLength="54" x="773" y="127.4404">science</text><path d="M713,474.4492 L723,474.4492 C738,474.4492 738,122.5938 753,122.5938 L763,122.5938 " fill="none" style="stroke:#181818;stroke-width:1.0;"/><rect fill="#F1F1F1" height="36.2969" rx="12.5" ry="12.5" style="stroke:#181818;stroke-width:1.5;" width="103" x="763" y="160.7422"/><text fill="#000000" font-family="sans-serif" font-size="14" lengthAdjust="spacing" textLength="83" x="773" y="183.7373">engineering</text><path d="M713,474.4492 L723,474.4492 C738,474.4492 738,178.8906 753,178.8906 L763,178.8906 " fill="none" style="stroke:#181818;stroke-width:1.0;"/><rect fill="#F1F1F1" height="36.2969" rx="12.5" ry="12.5" style="stroke:#181818;stroke-width:1.5;" width="103" x="763" y="217.0391"/><text fill="#000000" font-family="sans-serif" font-size="14" lengthAdjust="spacing" textLength="83" x="773" y="240.0342">architecture</text><path d="M713,474.4492 L723,474.4492 C738,474.4492 738,235.1875 753,235.1875 L763,235.1875 " fill="none" style="stroke:#181818;stroke-width:1.0;"/><rect fill="#F1F1F1" height="36.2969" rx="12.5" ry="12.5" style="stroke:#181818;stroke-width:1.5;" width="84" x="763" y="273.3359"/><text fill="#000000" font-family="sans-serif" font-size="14" lengthAdjust="spacing" textLength="64" x="773" y="296.3311">modeling</text><path d="M713,474.4492 L723,474.4492 C738,474.4492 738,291.4844 753,291.4844 L763,291.4844 " fill="none" style="stroke:#181818;stroke-width:1.0;"/><rect fill="#F1F1F1" height="36.2969" rx="12.5" ry="12.5" style="stroke:#181818;stroke-width:1.5;" width="64" x="763" y="329.6328"/><text fill="#000000" font-family="sans-serif" font-size="14" lengthAdjust="spacing" textLength="44" x="773" y="352.6279">quality</text><path d="M713,474.4492 L723,474.4492 C738,474.4492 738,347.7813 753,347.7813 L763,347.7813 " fill="none" style="stroke:#181818;stroke-width:1.0;"/><rect fill="#F1F1F1" height="36.2969" rx="12.5" ry="12.5" style="stroke:#181818;stroke-width:1.5;" width="74" x="763" y="385.9297"/><text fill="#000000" font-family="sans-serif" font-size="14" lengthAdjust="spacing" textLength="54" x="773" y="408.9248">security</text><rect fill="#F1F1F1" height="36.2969" rx="12.5" ry="12.5" style="stroke:#181818;stroke-width:1.5;" width="121" x="887" y="385.9297"/><text fill="#000000" font-family="sans-serif" font-size="14" lengthAdjust="spacing" textLength="101" x="897" y="408.9248">access control</text><path d="M837,404.0781 L847,404.0781 C862,404.0781 862,404.0781 877,404.0781 L887,404.0781 " fill="none" style="stroke:#181818;stroke-width:1.0;"/><path d="M713,474.4492 L723,474.4492 C738,474.4492 738,404.0781 753,404.0781 L763,404.0781 " fill="none" style="stroke:#181818;stroke-width:1.0;"/><rect fill="#F1F1F1" height="36.2969" rx="12.5" ry="12.5" style="stroke:#181818;stroke-width:1.5;" width="67" x="763" y="442.2266"/><text fill="#000000" font-family="sans-serif" font-size="14" lengthAdjust="spacing" textLength="47" x="773" y="465.2217">privacy</text><path d="M713,474.4492 L723,474.4492 C738,474.4492 738,460.375 753,460.375 L763,460.375 " fill="none" style="stroke:#181818;stroke-width:1.0;"/><rect fill="#F1F1F1" height="36.2969" rx="12.5" ry="12.5" style="stroke:#181818;stroke-width:1.5;" width="94" x="763" y="498.5234"/><text fill="#000000" font-family="sans-serif" font-size="14" lengthAdjust="spacing" textLength="74" x="773" y="521.5186">integration</text><path d="M713,474.4492 L723,474.4492 C738,474.4492 738,516.6719 753,516.6719 L763,516.6719 " fill="none" style="stroke:#181818;stroke-width:1.0;"/><rect fill="#F1F1F1" height="36.2969" rx="12.5" ry="12.5" style="stroke:#181818;stroke-width:1.5;" width="109" x="763" y="554.8203"/><text fill="#000000" font-family="sans-serif" font-size="14" lengthAdjust="spacing" textLength="89" x="773" y="577.8154">warehousing</text><path d="M713,474.4492 L723,474.4492 C738,474.4492 738,572.9688 753,572.9688 L763,572.9688 " fill="none" style="stroke:#181818;stroke-width:1.0;"/><rect fill="#F1F1F1" height="36.2969" rx="12.5" ry="12.5" style="stroke:#181818;stroke-width:1.5;" width="79" x="763" y="611.1172"/><text fill="#000000" font-family="sans-serif" font-size="14" lengthAdjust="spacing" textLength="59" x="773" y="634.1123">analytics</text><path d="M713,474.4492 L723,474.4492 C738,474.4492 738,629.2656 753,629.2656 L763,629.2656 " fill="none" style="stroke:#181818;stroke-width:1.0;"/><rect fill="#F1F1F1" height="36.2969" rx="12.5" ry="12.5" style="stroke:#181818;stroke-width:1.5;" width="103" x="763" y="667.4141"/><text fill="#000000" font-family="sans-serif" font-size="14" lengthAdjust="spacing" textLength="83" x="773" y="690.4092">visualization</text><path d="M713,474.4492 L723,474.4492 C738,474.4492 738,685.5625 753,685.5625 L763,685.5625 " fill="none" style="stroke:#181818;stroke-width:1.0;"/><rect fill="#F1F1F1" height="36.2969" rx="12.5" ry="12.5" style="stroke:#181818;stroke-width:1.5;" width="73" x="763" y="723.7109"/><text fill="#000000" font-family="sans-serif" font-size="14" lengthAdjust="spacing" textLength="53" x="773" y="746.7061">storage</text><path d="M713,474.4492 L723,474.4492 C738,474.4492 738,741.8594 753,741.8594 L763,741.8594 " fill="none" style="stroke:#181818;stroke-width:1.0;"/><rect fill="#F1F1F1" height="36.2969" rx="12.5" ry="12.5" style="stroke:#181818;stroke-width:1.5;" width="97" x="763" y="780.0078"/><text fill="#000000" font-family="sans-serif" font-size="14" lengthAdjust="spacing" textLength="77" x="773" y="803.0029">processing</text><path d="M713,474.4492 L723,474.4492 C738,474.4492 738,798.1563 753,798.1563 L763,798.1563 " fill="none" style="stroke:#181818;stroke-width:1.0;"/><rect fill="#F1F1F1" height="36.2969" rx="12.5" ry="12.5" style="stroke:#181818;stroke-width:1.5;" width="66" x="763" y="836.3047"/><text fill="#000000" font-family="sans-serif" font-size="14" lengthAdjust="spacing" textLength="46" x="773" y="859.2998">mining</text><path d="M713,474.4492 L723,474.4492 C738,474.4492 738,854.4531 753,854.4531 L763,854.4531 " fill="none" style="stroke:#181818;stroke-width:1.0;"/><rect fill="#F1F1F1" height="36.2969" rx="12.5" ry="12.5" style="stroke:#181818;stroke-width:1.5;" width="103" x="763" y="892.6016"/><text fill="#000000" font-family="sans-serif" font-size="14" lengthAdjust="spacing" textLength="83" x="773" y="915.5967">architecture</text><path d="M713,474.4492 L723,474.4492 C738,474.4492 738,910.75 753,910.75 L763,910.75 " fill="none" style="stroke:#181818;stroke-width:1.0;"/><rect fill="#F1F1F1" height="36.2969" rx="12.5" ry="12.5" style="stroke:#181818;stroke-width:1.5;" width="82" x="434" y="245.1875"/><text fill="#000000" font-family="sans-serif" font-size="14" lengthAdjust="spacing" textLength="62" x="444" y="268.1826">Archiving</text><rect fill="#F1F1F1" height="36.2969" rx="12.5" ry="12.5" style="stroke:#181818;stroke-width:1.5;" width="374" x="10" y="217.0391"/><text fill="#000000" font-family="sans-serif" font-size="14" lengthAdjust="spacing" textLength="354" x="20" y="240.0342">Long-term archiving (OAIS approach and standards)</text><path d="M434,263.3359 L424,263.3359 C409,263.3359 409,235.1875 394,235.1875 L384,235.1875 " fill="none" style="stroke:#181818;stroke-width:1.0;"/><rect fill="#F1F1F1" height="36.2969" rx="12.5" ry="12.5" style="stroke:#181818;stroke-width:1.5;" width="121" x="263" y="273.3359"/><text fill="#000000" font-family="sans-serif" font-size="14" lengthAdjust="spacing" textLength="101" x="273" y="296.3311">Legal archiving</text><path d="M434,263.3359 L424,263.3359 C409,263.3359 409,291.4844 394,291.4844 L384,291.4844 " fill="none" style="stroke:#181818;stroke-width:1.0;"/><path d="M566,474.4492 L556,474.4492 C541,474.4492 541,263.3359 526,263.3359 L516,263.3359 " fill="none" style="stroke:#181818;stroke-width:1.0;"/><rect fill="#F1F1F1" height="36.2969" rx="12.5" ry="12.5" style="stroke:#181818;stroke-width:1.5;" width="119" x="397" y="329.6328"/><text fill="#000000" font-family="sans-serif" font-size="14" lengthAdjust="spacing" textLength="99" x="407" y="352.6279">Data inventory</text><path d="M566,474.4492 L556,474.4492 C541,474.4492 541,347.7813 526,347.7813 L516,347.7813 " fill="none" style="stroke:#181818;stroke-width:1.0;"/><rect fill="#F1F1F1" height="36.2969" rx="12.5" ry="12.5" style="stroke:#181818;stroke-width:1.5;" width="137" x="379" y="385.9297"/><text fill="#000000" font-family="sans-serif" font-size="14" lengthAdjust="spacing" textLength="117" x="389" y="408.9248">Record retention</text><path d="M566,474.4492 L556,474.4492 C541,474.4492 541,404.0781 526,404.0781 L516,404.0781 " fill="none" style="stroke:#181818;stroke-width:1.0;"/><rect fill="#F1F1F1" height="36.2969" rx="12.5" ry="12.5" style="stroke:#181818;stroke-width:1.5;" width="359" x="157" y="442.2266"/><text fill="#000000" font-family="sans-serif" font-size="14" lengthAdjust="spacing" textLength="339" x="167" y="465.2217">Backup and Restore (including disaster recovery)</text><path d="M566,474.4492 L556,474.4492 C541,474.4492 541,460.375 526,460.375 L516,460.375 " fill="none" style="stroke:#181818;stroke-width:1.0;"/><rect fill="#F1F1F1" height="36.2969" rx="12.5" ry="12.5" style="stroke:#181818;stroke-width:1.5;" width="119" x="397" y="498.5234"/><text fill="#000000" font-family="sans-serif" font-size="14" lengthAdjust="spacing" textLength="99" x="407" y="521.5186">Temporal data</text><path d="M566,474.4492 L556,474.4492 C541,474.4492 541,516.6719 526,516.6719 L516,516.6719 " fill="none" style="stroke:#181818;stroke-width:1.0;"/><rect fill="#F1F1F1" height="36.2969" rx="12.5" ry="12.5" style="stroke:#181818;stroke-width:1.5;" width="145" x="371" y="582.9688"/><text fill="#000000" font-family="sans-serif" font-size="14" lengthAdjust="spacing" textLength="125" x="381" y="605.9639">Test data creation</text><rect fill="#F1F1F1" height="36.2969" rx="12.5" ry="12.5" style="stroke:#181818;stroke-width:1.5;" width="120" x="201" y="498.5234"/><text fill="#000000" font-family="sans-serif" font-size="14" lengthAdjust="spacing" textLength="100" x="211" y="521.5186">anonymization</text><path d="M371,601.1172 L361,601.1172 C346,601.1172 346,516.6719 331,516.6719 L321,516.6719 " fill="none" style="stroke:#181818;stroke-width:1.0;"/><rect fill="#F1F1F1" height="36.2969" rx="12.5" ry="12.5" style="stroke:#181818;stroke-width:1.5;" width="147" x="174" y="554.8203"/><text fill="#000000" font-family="sans-serif" font-size="14" lengthAdjust="spacing" textLength="127" x="184" y="577.8154">pseudonymization</text><path d="M371,601.1172 L361,601.1172 C346,601.1172 346,572.9688 331,572.9688 L321,572.9688 " fill="none" style="stroke:#181818;stroke-width:1.0;"/><rect fill="#F1F1F1" height="36.2969" rx="12.5" ry="12.5" style="stroke:#181818;stroke-width:1.5;" width="117" x="204" y="611.1172"/><text fill="#000000" font-family="sans-serif" font-size="14" lengthAdjust="spacing" textLength="97" x="214" y="634.1123">synthetic data</text><path d="M371,601.1172 L361,601.1172 C346,601.1172 346,629.2656 331,629.2656 L321,629.2656 " fill="none" style="stroke:#181818;stroke-width:1.0;"/><rect fill="#F1F1F1" height="36.2969" rx="12.5" ry="12.5" style="stroke:#181818;stroke-width:1.5;" width="112" x="209" y="667.4141"/><text fill="#000000" font-family="sans-serif" font-size="14" lengthAdjust="spacing" textLength="92" x="219" y="690.4092">data masking</text><path d="M371,601.1172 L361,601.1172 C346,601.1172 346,685.5625 331,685.5625 L321,685.5625 " fill="none" style="stroke:#181818;stroke-width:1.0;"/><path d="M566,474.4492 L556,474.4492 C541,474.4492 541,601.1172 526,601.1172 L516,601.1172 " fill="none" style="stroke:#181818;stroke-width:1.0;"/><rect fill="#F1F1F1" height="36.2969" rx="12.5" ry="12.5" style="stroke:#181818;stroke-width:1.5;" width="106" x="410" y="639.2656"/><text fill="#000000" font-family="sans-serif" font-size="14" lengthAdjust="spacing" textLength="86" x="420" y="662.2607">Data lineage</text><path d="M566,474.4492 L556,474.4492 C541,474.4492 541,657.4141 526,657.4141 L516,657.4141 " fill="none" style="stroke:#181818;stroke-width:1.0;"/><rect fill="#F1F1F1" height="36.2969" rx="12.5" ry="12.5" style="stroke:#181818;stroke-width:1.5;" width="138" x="378" y="695.5625"/><text fill="#000000" font-family="sans-serif" font-size="14" lengthAdjust="spacing" textLength="118" x="388" y="718.5576">Data provenance</text><path d="M566,474.4492 L556,474.4492 C541,474.4492 541,713.7109 526,713.7109 L516,713.7109 " fill="none" style="stroke:#181818;stroke-width:1.0;"/><!--SRC=[RLBBRjj03BphAtYq3IY8RA08VCghBHhOQ60dwPbPiV8YAwww3mNgrvUKvBOeUX4qVCoGmxsE2KDgBTSjTiKAxZ4Xx96nePOu5QiLDBwdmCY61AqW9dh7KCUJxKRitvd2Z20QIrCX43UMYOBbHY46SxA9JCfXJBU-9ZVdVcHqDWqZ0PaSfd_fCOPY1ECv1UyqtGNRenahBITg0YRhMQ7CH2UVurcEqGt9cgYWjr4LVlukZia7sN1Yz2eojuaH_vktBE56SQ_9Kj3ESrCc2krKft5OVBtvSWJiX17DIIQeHKU-QjPowg86tPyEfHtzjjoBrpuC6ZcGyQ66G4bYEg_4Rj6yvMwaF90EJx2mR5okLRYs4UKgGNgCtcfGDNYYjfCj7TGYCGLY6W6OG3XJbqBgUMZFvcYaYvJhVuDnu7GYSVJCLqvSBSQtltUHcv9QUyRYXYmtlfvhabSslxJYqI6dv_qEPE0e8b1Th2_NcukgMdoZ6exKGRM1wcgx_h3TRE3vwGuqlomMdnzt47qEXdJp5EnhrYcNnGFs28SihhMq1SxE5Gyl-oqSywkKOI9usHVtz1spI_2HZLVtjaBzgRmgTiXDbi7dnZilF66Oq2y0]--></g></svg>