<?xml version="1.0" encoding="us-ascii" standalone="no"?><svg xmlns="http://www.w3.org/2000/svg" xmlns:xlink="http://www.w3.org/1999/xlink" contentStyleType="text/css" height="950px" preserveAspectRatio="none" style="width:1031px;height:950px;background:#FFFFFF;" version="1.1" viewBox="0 0 1031 950" width="1031px" zoomAndPan="magnify"><defs/><g><rect fill="#F1F1F1" height="36.2969" rx="12.5" ry="12.5" style="stroke:#181818;stroke-width:1.5;" width="147" x="566" y="456.3008"/><text fill="#000000" font-family="sans-serif" font-size="14" lengthAdjust="spacing" textLength="127" x="576" y="479.2959">Data Management</text><rect fill="#F1F1F1" height="36.2969" rx="12.5" ry="12.5" style="stroke:#181818;stroke-width:1.5;" width="102" x="763" y="48.1484"/><text fill="#000000" font-family="sans-serif" font-size="14" lengthAdjust="spacing" textLength="82" x="773" y="71.1436">governance</text><rect fill="#F1F1F1" height="36.2969" rx="12.5" ry="12.5" style="stroke:#181818;stroke-width:1.5;" width="104" x="915" y="20"/><text fill="#000000" font-family="sans-serif" font-size="14" lengthAdjust="spacing" textLength="84" x="925" y="42.9951">stewardship</text><path d="M865,66.2969 L875,66.2969 C890,66.2969 890,38.1484 905,38.1484 L915,38.1484 " fill="none" style="stroke:#181818;stroke-width:1.0;"/><rect fill="#F1F1F1" height="36.2969" rx="12.5" ry="12.5" style="stroke:#181818;stroke-width:1.5;" width="92" x="915" y="76.2969"/><text fill="#000000" font-family="sans-serif" font-size="14" lengthAdjust="spacing" textLength="72" x="925" y="99.292">ownership</text><path d="M865,66.2969 L875,66.2969 C890,66.2969 890,94.4453 905,94.4453 L915,94.4453 " fill="none" style="stroke:#181818;stroke-width:1.0;"/><path d="M713,474.4492 L723,474.4492 C738,474.4492 738,66.2969 753,66.2969 L763,66.2969 " fill="none" style="stroke:#181818;stroke-width:1.0;"/><rect fill="#F1F1F1" height="36.2969" rx="12.5" ry="12.5" style="stroke:#181818;stroke-width:1.5;" width="74" x="763" y="104.4453"/><text fill="#000000" font-family="sans-serif" font-size="14" lengthAdjust="spacing" textLength="54" x="773" y="127.4404">science</text><path d="M713,474.4492 L723,474.4492 C738,474.4492 738,122.5938 753,122.5938 L763,122.5938 " fill="none" style="stroke:#181818;stroke-width:1.0;"/><rect fill="#F1F1F1" height="36.2969" rx="12.5" ry="12.5" style="stroke:#181818;stroke-width:1.5;" width="103" x="763" y="160.7422"/><text fill="#000000" font-family="sans-serif" font-size="14" lengthAdjust="spacing" textLength="83" x="773" y="183.7373">engineering</text><path d="M713,474.4492 L723,474.4492 C738,474.4492 738,178.8906 753,178.8906 L763,178.8906 " fill="none" style="stroke:#181818;stroke-width:1.0;"/><rect fill="#F1F1F1" height="36.2969" rx="12.5" ry="12.5" style="stroke:#181818;stroke-width:1.5;" width="103" x="763" y="217.0391"/><text fill="#000000" font-family="sans-serif" font-size="14" lengthAdjust="spacing" textLength="83" x="773" y="240.0342">architecture</text><path d="M713,474.4492 L723,474.4492 C738,474.4492 738,235.1875 753,235.1875 L763,235.1875 " fill="none" style="stroke:#181818;stroke-width:1.0;"/><rect fill="#F1F1F1" height="36.2969" rx="12.5" ry="12.5" style="stroke:#181818;stroke-width:1.5;" width="84" x="763" y="273.3359"/><text fill="#000000" font-family="sans-serif" font-size="14" lengthAdjust="spacing" textLength="64" x="773" y="296.3311">modeling</text><path d="M713,474.4492 L723,474.4492 C738,474.4492 738,291.4844 753,291.4844 L763,291.4844 " fill="none" style="stroke:#181818;stroke-width:1.0;"/><rect fill="#F1F1F1" height="36.2969" rx="12.5" ry="12.5" style="stroke:#181818;stroke-width:1.5;" width="64" x="763" y="329.6328"/><text fill="#000000" font-family="sans-serif" font-size="14" lengthAdjust="spacing" textLength="44" x="773" y="352.6279">quality</text><path d="M713,474.4492 L723,474.4492 C738,474.4492 738,347.7813 753,347.7813 L763,347.7813 " fill="none" style="stroke:#181818;stroke-width:1.0;"/><rect fill="#F1F1F1" height="36.2969" rx="12.5" ry="12.5" style="stroke:#181818;stroke-width:1.5;" width="74" x="763" y="385.9297"/><text fill="#000000" font-family="sans-serif" font-size="14" lengthAdjust="spacing" textLength="54" x="773" y="408.9248">security</text><rect fill="#F1F1F1" height="36.2969" rx="12.5" ry="12.5" style="stroke:#181818;stroke-width:1.5;" width="121" x="887" y="385.9297"/><text fill="#000000" font-family="sans-serif" font-size="14" lengthAdjust="spacing" textLength="101" x="897" y="408.9248">access control</text><path d="M837,404.0781 L847,404.0781 C862,404.0781 862,404.0781 877,404.0781 L887,404.0781 " fill="none" style="stroke:#181818;stroke-width:1.0;"/><path d="M713,474.4492 L723,474.4492 C738,474.4492 738,404.0781 753,404.0781 L763,404.0781 " fill="none" style="stroke:#181818;stroke-width:1.0;"/><rect fill="#F1F1F1" height="36.2969" rx="12.5" ry="12.5" style="stroke:#181818;stroke-width:1.5;" width="67" x="763" y="442.2266"/><text fill="#000000" font-family="sans-serif" font-size="14" lengthAdjust="spacing" textLength="47" x="773" y="465.2217">privacy</text><path d="M713,474.4492 L723,474.4492 C738,474.4492 738,460.375 753,460.375 L763,460.375 " fill="none" style="stroke:#181818;stroke-width:1.0;"/><rect fill="#F1F1F1" height="36.2969" rx="12.5" ry="12.5" style="stroke:#181818;stroke-width:1.5;" width="94" x="763" y="498.5234"/><text fill="#000000" font-family="sans-serif" font-size="14" lengthAdjust="spacing" textLength="74" x="773" y="521.5186">integration</text><path d="M713,474.4492 L723,474.4492 C738,474.4492 738,516.6719 753,516.6719 L763,516.6719 " fill="none" style="stroke:#181818;stroke-width:1.0;"/><rect fill="#F1F1F1" height="36.2969" rx="12.5" ry="12.5" style="stroke:#181818;stroke-width:1.5;" width="109" x="763" y="554.8203"/><text fill="#000000" font-family="sans-serif" font-size="14" lengthAdjust="spacing" textLength="89" x="773" y="577.8154">warehousing</text><path d="M713,474.4492 L723,474.4492 C738,474.4492 738,572.9688 753,572.9688 L763,572.9688 " fill="none" style="stroke:#181818;stroke-width:1.0;"/><rect fill="#F1F1F1" height="36.2969" rx="12.5" ry="12.5" style="stroke:#181818;stroke-width:1.5;" width="79" x="763" y="611.1172"/><text fill="#000000" font-family="sans-serif" font-size="14" lengthAdjust="spacing" textLength="59" x="773" y="634.1123">analytics</text><path d="M713,474.4492 L723,474.4492 C738,474.4492 738,629.2656 753,629.2656 L763,629.2656 " fill="none" style="stroke:#181818;stroke-width:1.0;"/><rect fill="#F1F1F1" height="36.2969" rx="12.5" ry="12.5" style="stroke:#181818;stroke-width:1.5;" width="103" x="763" y="667.4141"/><text fill="#000000" font-family="sans-serif" font-size="14" lengthAdjust="spacing" textLength="83" x="773" y="690.4092">visualization</text><path d="M713,474.4492 L723,474.4492 C738,474.4492 738,685.5625 753,685.5625 L763,685.5625 " fill="none" style="stroke:#181818;stroke-width:1.0;"/><rect fill="#F1F1F1" height="36.2969" rx="12.5" ry="12.5" style="stroke:#181818;stroke-width:1.5;" width="73" x="763" y="723.7109"/><text fill="#000000" font-family="sans-serif" font-size="14" lengthAdjust="spacing" textLength="53" x="773" y="746.7061">storage</text><path d="M713,474.4492 L723,474.4492 C738,474.4492 738,741.8594 753,741.8594 L763,741.8594 " fill="none" style="stroke:#181818;stroke-width:1.0;"/><rect fill="#F1F1F1" height="36.2969" rx="12.5" ry="12.5" style="stroke:#181818;stroke-width:1.5;" width="97" x="763" y="780.0078"/><text fill="#000000" font-family="sans-serif" font-size="14" lengthAdjust="spacing" textLength="77" x="773" y="803.0029">processing</text><path d="M713,474.4492 L723,474.4492 C738,474.4492 738,798.1563 753,798.1563 L763,798.1563 " fill="none" style="stroke:#181818;stroke-width:1.0;"/><rect fill="#F1F1F1" height="36.2969" rx="12.5" ry="12.5" style="stroke:#181818;stroke-width:1.5;" width="66" x="763" y="836.3047"/><text fill="#000000" font-family="sans-serif" font-size="14" lengthAdjust="spacing" textLength="46" x="773" y="859.2998">mining</text><path d="M713,474.4492 L723,474.4492 C738,474.4492 738,854.4531 753,854.4531 L763,854.4531 " fill="none" style="stroke:#181818;stroke-width:1.0;"/><rect fill="#F1F1F1" height="36.2969" rx="12.5" ry="12.5" style="stroke:#181818;stroke-width:1.5;" width="103" x="763" y="892.6016"/><text fill="#000000" font-family="sans-serif" font-size="14" lengthAdjust="spacing" textLength="83" x="773" y="915.5967">architecture</text><path d="M713,474.4492 L723,474.4492 C738,474.4492 738,910.75 753,910.75 L763,910.75 " fill="none" style="stroke:#181818;stroke-width:1.0;"/><rect fill="#F1F1F1" height="36.2969" rx="12.5" ry="12.5" style="stroke:#181818;stroke-width:1.5;" width="82" x="434" y="371.8555"/><text fill="#000000" font-family="sans-serif" font-size="14" lengthAdjust="spacing" textLength="62" x="444" y="394.8506">Archiving</text><rect fill="#F1F1F1" height="36.2969" rx="12.5" ry="12.5" style="stroke:#181818;stroke-width:1.5;" width="374" x="10" y="343.707"/><text fill="#000000" font-family="sans-serif" font-size="14" lengthAdjust="spacing" textLength="354" x="20" y="366.7021">Long-term archiving (OAIS approach and standards)</text><path d="M434,390.0039 L424,390.0039 C409,390.0039 409,361.8555 394,361.8555 L384,361.8555 " fill="none" style="stroke:#181818;stroke-width:1.0;"/><rect fill="#F1F1F1" height="36.2969" rx="12.5" ry="12.5" style="stroke:#181818;stroke-width:1.5;" width="121" x="263" y="400.0039"/><text fill="#000000" font-family="sans-serif" font-size="14" lengthAdjust="spacing" textLength="101" x="273" y="422.999">Legal archiving</text><path d="M434,390.0039 L424,390.0039 C409,390.0039 409,418.1523 394,418.1523 L384,418.1523 " fill="none" style="stroke:#181818;stroke-width:1.0;"/><path d="M566,474.4492 L556,474.4492 C541,474.4492 541,390.0039 526,390.0039 L516,390.0039 " fill="none" style="stroke:#181818;stroke-width:1.0;"/><rect fill="#F1F1F1" height="36.2969" rx="12.5" ry="12.5" style="stroke:#181818;stroke-width:1.5;" width="137" x="379" y="456.3008"/><text fill="#000000" font-family="sans-serif" font-size="14" lengthAdjust="spacing" textLength="117" x="389" y="479.2959">Record retention</text><path d="M566,474.4492 L556,474.4492 C541,474.4492 541,474.4492 526,474.4492 L516,474.4492 " fill="none" style="stroke:#181818;stroke-width:1.0;"/><rect fill="#F1F1F1" height="36.2969" rx="12.5" ry="12.5" style="stroke:#181818;stroke-width:1.5;" width="359" x="157" y="512.5977"/><text fill="#000000" font-family="sans-serif" font-size="14" lengthAdjust="spacing" textLength="339" x="167" y="535.5928">Backup and Restore (including disaster recovery)</text><path d="M566,474.4492 L556,474.4492 C541,474.4492 541,530.7461 526,530.7461 L516,530.7461 " fill="none" style="stroke:#181818;stroke-width:1.0;"/><rect fill="#F1F1F1" height="36.2969" rx="12.5" ry="12.5" style="stroke:#181818;stroke-width:1.5;" width="119" x="397" y="568.8945"/><text fill="#000000" font-family="sans-serif" font-size="14" lengthAdjust="spacing" textLength="99" x="407" y="591.8896">Temporal data</text><path d="M566,474.4492 L556,474.4492 C541,474.4492 541,587.043 526,587.043 L516,587.043 " fill="none" style="stroke:#181818;stroke-width:1.0;"/><!--SRC=[RL5DRzim3BthL_2O170n9y1G-DIktOOL2LOaRNTcPSuH9bEUFbnaltwaxMsNNGGzyV6z9_8cPOovTzpsE9WDt6D6E21ZHprnDfiDT66aoCYM16qWPNh3sAQp6oOStfZYWY1PHpCHY3l7HD5nfn2ZFRjCDfSubVlGabzgFmjwbo-J0DaIvxlqM4ifWGsSO_1Q7g8RqKvCnvcwYDa5LYYPw1nA-cF7w2_PsQHWT4aTVlqbfnoY_71M36gojCaW_fUtgk1MyQZ5Ij0-S5TbYltCqtTOVRtzSW8SH17jMHAquYEd3cizTr67_b-7oXx9XjX2f2pJrdJozW7jZp9C0aVIg0GhnzQNLcrQbr1s4AN7wcOkgWrFr0_o9m-jBD3SaEnpsQbvzCZv-R078IUnWFfg-swxkwhhrJTguKG3r3kehvlj-sQtW-UdEz3wsgm-F-uXXH8jgMkExhLenhLvm17XM2HnJmrmyTuyl1mQE9LNeM4cU3cOU_gEnMVuo3PeyaQaFrNNPe_S5Pd-qdWNH2TUPlGR]--></g></svg>